<svg xmlns="http://www.w3.org/2000/svg" width="64" height="64" viewBox="0 0 64 64">
  <title>Astrid's Quiz</title>
  <rect width="64" height="64" rx="14" fill="#fbf5e8"/>
  <g fill="none" stroke="#b94d36" stroke-width="2.5" stroke-linecap="round" stroke-linejoin="round">
    <path d="M32 11c-9 0-15 6-15 14 0 5 2 8 4 10-2 2-4 4-4 8 0 6 5 10 12 10h6c7 0 12-4 12-10 0-4-2-6-4-8 2-2 4-5 4-10 0-8-6-14-15-14z"/>
    <path d="M22 27c2 3 6 4 10 4s8-1 10-4"/>
  </g>
  <circle cx="46" cy="46" r="4" fill="#c89149"/>
</svg>
